<?xml version="1.0" encoding="utf-8"?>
<!-- Generator: Adobe Illustrator 24.3.0, SVG Export Plug-In . SVG Version: 6.00 Build 0)  -->
<svg version="1.1" id="Слой_1" xmlns="http://www.w3.org/2000/svg" xmlns:xlink="http://www.w3.org/1999/xlink" x="0px" y="0px"
	 viewBox="0 0 20 16" style="enable-background:new 0 0 20 16;" xml:space="preserve">
<style type="text/css">
	.st0{fill-rule:evenodd;clip-rule:evenodd;fill:#CB11AB;}
</style>
<path class="st0" d="M17.6,1.3C16.6,0.4,15.2,0,14,0c-2.1,0-3.3,1.1-4,1.8C9.3,1.1,8.1,0,6,0C4.8,0,3.4,0.4,2.4,1.3
	C1.3,2.2,0.7,3.7,1,5.6c0.3,1.9,1.5,3.7,3.1,5.5c1.6,1.7,3.6,3.4,5.6,4.9c0.2,0.1,0.4,0.1,0.6,0c2-1.5,4-3.2,5.6-4.9
	c1.6-1.8,2.8-3.6,3.1-5.5C19.2,3.7,18.6,2.2,17.6,1.3z"/>
</svg>
